<?xml version="1.0" ?><!DOCTYPE svg  PUBLIC '-//W3C//DTD SVG 1.1//EN'  'http://www.w3.org/Graphics/SVG/1.1/DTD/svg11.dtd'><svg height="512px" style="enable-background:new 0 0 512 512;" version="1.1" viewBox="0 0 512 512" width="512px" xml:space="preserve" xmlns="http://www.w3.org/2000/svg" xmlns:xlink="http://www.w3.org/1999/xlink"><g id="C_-_65_x2C__Employee_x2C__hr_x2C__human_x2C__hunting_x2C__personal_x2C__resources_x2C__resume_x2C__search"><g><path d="M234.281,221.882c0.003-0.076,0.01-0.151,0.013-0.227c0.041-1.102,0.105-2.201,0.194-3.3    c0.016-0.19,0.032-0.38,0.049-0.57c0.089-1.011,0.198-2.02,0.328-3.027c0.041-0.32,0.086-0.641,0.131-0.96    c0.121-0.852,0.253-1.701,0.403-2.549c0.088-0.5,0.184-0.999,0.281-1.497c0.13-0.658,0.264-1.314,0.413-1.968    c0.156-0.698,0.326-1.391,0.5-2.083c0.117-0.458,0.233-0.915,0.359-1.37c0.242-0.886,0.504-1.764,0.779-2.639    c0.085-0.272,0.167-0.543,0.256-0.814c0.342-1.05,0.708-2.088,1.096-3.12c0.042-0.113,0.082-0.226,0.125-0.339    c1.368-3.593,3.004-7.076,4.908-10.421c-3.53-1.645-7.374-2.5-11.317-2.5h-71.176c-15.014,0-27.23,12.145-27.23,27.073v35.06    h103.127c-0.375-1.23-0.715-2.47-1.026-3.72c-0.009-0.034-0.017-0.069-0.025-0.104c-0.281-1.136-0.537-2.279-0.765-3.429    c-0.052-0.264-0.1-0.527-0.149-0.791c-0.168-0.899-0.325-1.801-0.46-2.707c-0.077-0.506-0.144-1.012-0.21-1.519    c-0.084-0.653-0.165-1.307-0.231-1.963c-0.078-0.741-0.142-1.482-0.198-2.225c-0.03-0.423-0.061-0.846-0.085-1.271    c-0.055-0.944-0.091-1.889-0.111-2.834c-0.004-0.241-0.009-0.48-0.012-0.721c-0.012-1.08,0-2.158,0.032-3.236    C234.281,222.035,234.278,221.959,234.281,221.882z M201.533,224.503h-17.964v-17.879h17.964V224.503z"/><path d="M197.053,148.307c17.224,0,31.235-13.937,31.235-31.067c0-17.128-14.012-31.064-31.235-31.064    c-17.223,0-31.235,13.936-31.235,31.064C165.817,134.371,179.83,148.307,197.053,148.307z"/><path d="M244.062,232.328c0.099,0.845,0.219,1.685,0.35,2.523c0.04,0.253,0.074,0.506,0.117,0.759    c0.126,0.754,0.273,1.502,0.425,2.25c0.105,0.514,0.216,1.029,0.334,1.542c0.045,0.196,0.095,0.39,0.141,0.585    c0.274,1.143,0.574,2.282,0.91,3.414c0.005,0.019,0.011,0.038,0.017,0.056c0.575,1.929,1.238,3.841,1.993,5.73    c0.112,0.221,0.202,0.457,0.279,0.696c3.044,7.366,7.419,14.206,13.043,20.203c12.653,13.487,30.551,21.223,49.106,21.223    c11.645,0,22.916-2.978,32.869-8.55c0.172-0.097,0.344-0.194,0.516-0.292c0.777-0.444,1.547-0.9,2.307-1.376    c0.046-0.029,0.094-0.057,0.141-0.086c0.782-0.492,1.552-1.006,2.314-1.531c0.2-0.139,0.398-0.277,0.596-0.418    c0.688-0.482,1.366-0.978,2.035-1.486c0.081-0.063,0.164-0.121,0.245-0.184c0.722-0.555,1.428-1.13,2.128-1.715    c0.196-0.165,0.393-0.33,0.588-0.497c0.704-0.603,1.401-1.214,2.084-1.849c0.002-0.002,0.004-0.004,0.008-0.006v-0.001    c0.723-0.671,1.421-1.36,2.107-2.057c0.178-0.18,0.354-0.358,0.529-0.54c0.647-0.671,1.283-1.351,1.9-2.044    c0.17-0.192,0.334-0.392,0.503-0.586c0.438-0.503,0.866-1.014,1.288-1.529c0.26-0.318,0.52-0.636,0.773-0.959    c0.38-0.483,0.749-0.973,1.115-1.465c0.422-0.568,0.834-1.144,1.236-1.725c0.18-0.255,0.355-0.513,0.529-0.771    c0.33-0.489,0.657-0.98,0.973-1.478c0.007-0.011,0.016-0.02,0.021-0.028c6.303-9.909,9.885-21.34,10.297-33.372    c0.61-17.831-5.791-34.831-18.025-47.872c-12.655-13.49-30.557-21.227-49.111-21.227c-17.068,0-33.342,6.389-45.822,17.99    c-3.98,3.7-7.441,7.806-10.358,12.223c-0.008,0.013-0.012,0.026-0.021,0.039c-0.313,0.477-0.618,0.958-0.918,1.441    c-0.113,0.182-0.225,0.364-0.336,0.546c-0.985,1.614-1.896,3.263-2.733,4.94c-0.059,0.117-0.114,0.236-0.172,0.354    c-0.481,0.982-0.937,1.975-1.368,2.975c-0.094,0.219-0.189,0.438-0.281,0.658c-0.221,0.526-0.437,1.053-0.643,1.584    c-0.249,0.644-0.49,1.29-0.718,1.94c-0.146,0.417-0.284,0.836-0.422,1.255c-0.188,0.571-0.37,1.144-0.543,1.721    c-0.086,0.287-0.176,0.574-0.259,0.862c-0.248,0.873-0.477,1.752-0.689,2.637c-0.041,0.167-0.081,0.334-0.12,0.501    c-0.969,4.182-1.544,8.487-1.695,12.871c-0.114,3.315,0.017,6.6,0.38,9.838C244.037,232.137,244.05,232.232,244.062,232.328z"/><path d="M428.545,390.334c-0.07,0.044-0.147,0.071-0.221,0.111c-0.192,0.104-0.385,0.207-0.588,0.282    c-0.099,0.037-0.201,0.055-0.302,0.085c-0.183,0.055-0.364,0.111-0.551,0.143c-0.115,0.02-0.231,0.021-0.347,0.031    c-0.146,0.014-0.292,0.041-0.439,0.041c-0.027,0-0.055-0.008-0.082-0.009c-0.17-0.003-0.336-0.029-0.504-0.05    c-0.135-0.018-0.271-0.024-0.404-0.053c-0.175-0.038-0.344-0.102-0.514-0.159c-0.121-0.041-0.246-0.069-0.363-0.121    c-0.187-0.08-0.36-0.19-0.536-0.295c-0.095-0.056-0.192-0.099-0.284-0.161c-0.26-0.183-0.506-0.392-0.73-0.633l-61.289-65.334    c-0.852-0.908-1.309-2.12-1.266-3.366s0.581-2.424,1.494-3.272l3.112-2.892l-20.386-21.731    c-10.354,5.041-21.792,7.728-33.568,7.728c-21.135,0-41.523-8.814-55.941-24.183c-5.761-6.143-10.368-13.063-13.766-20.495    H129.706c-2.587,0-4.686-2.098-4.686-4.686V211.57c0-20.095,16.419-36.444,36.602-36.444h71.176    c5.781,0,11.394,1.383,16.484,3.992c2.746-3.671,5.827-7.135,9.261-10.325c14.218-13.217,32.758-20.496,52.201-20.496    c21.135,0,41.525,8.815,55.945,24.186c13.953,14.872,21.254,34.263,20.557,54.604c-0.428,12.491-3.852,24.413-9.881,34.976    l20.489,21.843l3.148-2.926c0.944-0.879,2.154-1.292,3.349-1.251c1.195,0.041,2.375,0.537,3.258,1.478l22.214,23.678v-263.4    H98.449v383.911h331.375v-36.12l-0.536,0.499C429.055,389.989,428.806,390.175,428.545,390.334z M197.053,76.805    c22.391,0,40.606,18.139,40.606,40.435c0,22.297-18.216,40.438-40.606,40.438s-40.606-18.141-40.606-40.438    C156.446,94.944,174.662,76.805,197.053,76.805z M138.665,318.134h98.789c2.588,0,4.686,2.098,4.686,4.686    s-2.098,4.686-4.686,4.686h-98.789c-2.587,0-4.685-2.098-4.685-4.686S136.078,318.134,138.665,318.134z M318.275,381.135h-179.61    c-2.587,0-4.685-2.098-4.685-4.686s2.098-4.686,4.685-4.686h179.61c2.588,0,4.686,2.098,4.686,4.686    S320.863,381.135,318.275,381.135z M318.275,354.324h-179.61c-2.587,0-4.685-2.098-4.685-4.686c0-2.589,2.098-4.686,4.685-4.686    h179.61c2.588,0,4.686,2.097,4.686,4.686C322.961,352.227,320.863,354.324,318.275,354.324z"/><path d="M376.859,303.413l14.127-13.133l-18.919-20.17c-0.138,0.183-0.284,0.356-0.423,0.536    c-0.468,0.609-0.939,1.216-1.427,1.813c-0.32,0.393-0.651,0.776-0.979,1.164c-0.417,0.489-0.832,0.981-1.262,1.463    c-0.475,0.53-0.965,1.046-1.453,1.563c-0.318,0.337-0.629,0.681-0.955,1.013c-0.842,0.859-1.701,1.702-2.585,2.522    c-0.84,0.779-1.697,1.537-2.569,2.277c-0.338,0.287-0.686,0.56-1.027,0.84c-0.543,0.446-1.086,0.893-1.641,1.322    c-0.396,0.308-0.801,0.603-1.202,0.901c-0.519,0.387-1.037,0.771-1.563,1.145c-0.418,0.295-0.841,0.579-1.264,0.864    c-0.326,0.222-0.646,0.454-0.977,0.67l18.856,20.1L376.859,303.413z"/><path d="M431.116,319.958c-0.009-0.008-0.018-0.014-0.024-0.022l-27.127-28.917l-21.371,19.859l-8.031,7.467    c-0.008,0.006-0.016,0.011-0.023,0.017l-3.092,2.874l54.875,58.499l4.996-4.644c0.002-0.002,0.004-0.003,0.006-0.005    l27.519-25.574L431.116,319.958z M426.045,358.578c-4.963,0-8.982-4.008-8.982-8.939c0-4.94,4.02-8.94,8.982-8.94    c4.955,0,8.981,4,8.981,8.94C435.026,354.57,431,358.578,426.045,358.578z"/><path d="M345.213,461.146H62.528V174.059c0-2.588-2.098-4.686-4.686-4.686c-2.587,0-4.686,2.098-4.686,4.686v291.773    c0,2.588,2.098,4.686,4.686,4.686h287.37c2.589,0,4.686-2.098,4.686-4.686S347.802,461.146,345.213,461.146z"/></g></g><g id="Layer_1"/></svg>